<svg version="1.1" id="Layer_1" xmlns="http://www.w3.org/2000/svg" xmlns:xlink="http://www.w3.org/1999/xlink" x="0px" y="0px"
	 width="100%" viewBox="0 0 155 151" enable-background="new 0 0 155 151" xml:space="preserve">
<path fill="#000000" opacity="1.000000" stroke="none" 
	d="
M95.000000,152.000000 
	C63.333336,152.000000 32.166676,152.000000 1.000008,152.000000 
	C1.000006,101.666679 1.000006,51.333351 1.000003,1.000022 
	C52.666653,1.000015 104.333305,1.000015 155.999969,1.000007 
	C155.999969,51.333313 155.999969,101.666626 155.999985,151.999969 
	C135.833328,152.000000 115.666664,152.000000 95.000000,152.000000 
M94.388748,39.664921 
	C94.634781,39.516808 94.769737,39.299610 94.926689,38.926071 
	C94.926689,38.926071 95.009987,38.790508 95.385391,38.669556 
	C95.624504,38.514198 95.752632,38.294163 95.915207,37.902370 
	C95.915207,37.902370 96.009949,37.748623 96.388054,37.630589 
	C96.625954,37.480637 96.773491,37.267944 96.934479,36.946533 
	C96.934479,36.946533 96.984955,36.844830 97.382248,36.680569 
	C97.630630,36.509617 97.789772,36.277462 97.947899,35.955101 
	C97.947899,35.955101 97.980713,35.868229 98.378853,35.699806 
	C98.629120,35.521641 98.772583,35.280037 98.917564,34.925045 
	C98.917564,34.925045 98.968384,34.817120 99.381485,34.682812 
	C99.642723,34.519642 99.804329,34.287170 99.954041,33.955894 
	C99.954041,33.955894 99.986359,33.869133 100.395523,33.708374 
	C100.652588,33.534981 100.811852,33.296307 100.948997,32.965572 
	C100.948997,32.965572 100.959778,32.886032 101.556244,32.627388 
	C103.332542,30.741568 105.108841,28.855749 106.950844,26.959776 
	C106.950844,26.959776 106.922966,26.899418 107.450867,26.680571 
	C108.139320,25.748825 108.827774,24.817078 109.726288,23.601032 
	C99.549576,22.211590 92.770363,23.903028 87.007828,29.002338 
	C87.007828,29.002338 86.994751,28.966446 86.343521,29.129288 
	C84.602814,30.765642 82.862106,32.401997 81.033615,34.079929 
	C81.033615,34.079929 81.006538,34.173218 80.661591,34.345940 
	C80.445580,34.504963 80.306023,34.714836 80.117538,35.046265 
	C80.117538,35.046265 80.043930,35.169960 79.423210,35.441906 
	C78.053535,37.479393 76.044708,39.350025 75.459358,41.592262 
	C74.507614,45.238087 74.487236,49.127045 74.058121,52.977386 
	C74.058121,52.977386 74.123878,52.981476 74.150902,53.737404 
	C75.215134,57.247715 74.344963,60.062752 71.443954,62.429321 
	C70.377655,63.299179 69.829330,64.803978 68.626022,66.284767 
	C68.366905,66.500839 68.170326,66.763680 67.597771,67.261620 
	C67.323273,67.452713 67.146591,67.710777 66.648621,68.277351 
	C66.384315,68.473373 66.178040,68.718269 65.570320,69.200104 
	C65.278435,69.396530 65.103928,69.668304 64.995857,70.002129 
	C64.995857,70.002129 65.019974,70.049126 64.602791,70.259827 
	C64.341354,70.452263 64.167671,70.704994 64.016777,71.010406 
	C64.016777,71.010406 64.019501,71.075752 63.589684,71.245796 
	C63.317497,71.427856 63.153660,71.680252 63.022602,72.030342 
	C63.022602,72.030342 63.006821,72.109138 62.604057,72.293617 
	C62.352013,72.470245 62.180733,72.705658 62.018589,73.011032 
	C62.018589,73.011032 62.001179,73.081406 61.587448,73.255959 
	C61.326168,73.437401 61.171295,73.685318 61.046188,74.051300 
	C61.046188,74.051300 61.036381,74.143166 60.477520,74.458466 
	C58.721073,76.313171 56.964622,78.167877 55.089764,80.106483 
	C55.089764,80.106483 55.031712,80.239487 54.443283,80.499390 
	C51.955559,83.332832 49.467831,86.166283 47.005871,89.004539 
	C47.005871,89.004539 46.996117,88.980095 46.410275,89.279869 
	C44.654728,91.195312 42.899185,93.110756 41.041580,95.069016 
	C41.041580,95.069016 40.993961,95.168930 40.592140,95.310539 
	C40.339905,95.474861 40.181507,95.704071 40.032043,96.028847 
	C40.032043,96.028847 40.000969,96.113594 39.605160,96.281677 
	C39.355736,96.455170 39.206551,96.691864 39.050274,97.042320 
	C39.050274,97.042320 38.992981,97.146217 38.595486,97.282051 
	C38.341599,97.448021 38.205807,97.682434 38.094582,98.052246 
	C38.094582,98.052246 38.069328,98.164467 37.444000,98.374817 
	C35.008053,100.912666 32.572105,103.450508 30.039129,106.046631 
	C30.039129,106.046631 29.997147,106.151741 29.411898,106.470642 
	C23.360525,114.504906 23.768826,119.089592 31.059160,124.950157 
	C31.059160,124.950157 31.136629,124.980202 31.283400,125.386894 
	C31.453922,125.647354 31.694435,125.789047 32.076973,125.894547 
	C32.076973,125.894547 32.186314,125.901764 32.536674,126.509956 
	C37.285118,129.960876 41.659935,128.722534 45.847591,125.421394 
	C47.240322,124.323502 48.577385,123.154991 50.012852,122.006401 
	C50.012852,122.006401 50.015514,121.932457 50.551392,121.672310 
	C51.328514,120.781403 52.105633,119.890503 52.975311,118.981049 
	C52.975311,118.981049 53.027958,118.902695 53.441689,118.744400 
	C53.699947,118.567955 53.858635,118.326149 53.989433,117.997925 
	C53.989433,117.997925 53.995945,117.923508 54.575340,117.653076 
	C56.007576,116.086899 57.439812,114.520721 58.942471,112.945984 
	C58.942471,112.945984 58.949108,112.875359 59.539310,112.606178 
	C61.318821,110.723389 63.098331,108.840599 64.957680,106.943085 
	C64.957680,106.943085 64.982834,106.865898 65.383148,106.691559 
	C65.634178,106.512489 65.786003,106.271019 65.929512,105.928658 
	C65.929512,105.928658 65.956543,105.833740 66.340141,105.665413 
	C66.581757,105.493073 66.722252,105.259811 66.867485,104.905830 
	C66.867485,104.905830 66.905380,104.790306 67.513680,104.544594 
	C69.621696,102.685295 71.729706,100.825989 73.943665,98.947876 
	C73.943665,98.947876 74.009514,98.862770 74.422623,98.730247 
	C74.684891,98.562286 74.833572,98.323547 74.967712,97.945732 
	C74.967712,97.945732 75.010803,97.833397 75.375671,97.679909 
	C75.606522,97.521889 75.744698,97.304848 75.908699,96.949547 
	C75.908699,96.949547 75.973396,96.822540 76.560913,96.556618 
	C78.656441,94.364304 80.751968,92.171989 82.961479,89.910271 
	C82.961479,89.910271 83.022148,89.791397 83.378677,89.652176 
	C83.603073,89.496956 83.730766,89.283768 83.879356,88.933815 
	C83.879356,88.933815 83.937607,88.804810 84.522873,88.559395 
	C86.007355,87.028564 87.491837,85.497726 89.548355,83.845551 
	C89.997017,83.533920 90.445679,83.222282 91.454361,82.654709 
	C92.252693,81.759499 93.051033,80.864296 93.954659,79.938820 
	C93.954659,79.938820 94.012733,79.845917 94.434029,79.702637 
	C94.695030,79.535744 94.878357,79.306648 95.013557,79.024101 
	C95.013557,79.024101 95.020805,78.994148 95.786301,79.062180 
	C107.380363,81.935837 119.601555,77.097649 123.940971,67.935890 
	C123.940971,67.935890 123.972931,67.850792 124.382454,67.704071 
	C124.642227,67.536469 124.797218,67.300133 124.951324,66.952446 
	C124.951324,66.952446 125.002815,66.852661 125.416267,66.722313 
	C125.678246,66.561760 125.843880,66.331779 125.989784,66.003151 
	C125.989784,66.003151 126.003563,65.922302 126.576599,65.531303 
	C129.916382,59.112972 132.441940,52.576675 129.779755,43.668552 
	C124.967361,48.749084 121.046608,52.888298 117.047348,57.042194 
	C117.047348,57.042194 117.025871,57.119118 116.395218,57.409969 
	C113.895607,60.569756 110.593819,61.522713 106.708481,61.026276 
	C103.601021,60.629234 100.392326,60.664131 97.403625,59.858150 
	C96.020561,59.485176 94.227791,57.676575 94.046761,56.327492 
	C93.367882,51.268246 93.277206,46.130070 93.024330,41.008282 
	C93.024330,41.008282 92.998032,40.954643 93.357117,40.761093 
	C93.593842,40.587482 93.713715,40.353931 93.884705,39.935143 
	C93.884705,39.935143 94.005157,39.763668 94.388748,39.664921 
M115.987068,50.993603 
	C115.987068,50.993603 115.974678,50.946114 116.451050,50.795567 
	C116.632881,50.525471 116.814705,50.255375 116.996155,49.996361 
	C116.996155,49.996361 116.985352,49.997379 117.442825,49.799553 
	C117.730034,49.598785 117.909615,49.326927 118.000099,49.000000 
	C118.000099,49.000000 117.983185,48.982006 118.431923,48.787636 
	C118.714714,48.588524 118.883850,48.318279 118.983055,47.979958 
	C118.983055,47.979958 118.969551,47.938068 119.383568,47.717289 
	C119.641716,47.520641 119.817894,47.267044 119.973755,46.957733 
	C119.973755,46.957733 119.916420,46.923077 120.446762,46.711708 
	C122.719589,44.910240 122.543785,43.334518 119.992867,42.003429 
	C119.992867,42.003429 120.025009,42.003101 119.802605,41.494934 
	C119.512238,41.268650 119.221863,41.042362 118.872139,40.597973 
	C118.872139,40.597973 118.783615,40.389988 118.696838,39.850857 
	C118.443192,39.607601 118.189552,39.364342 117.910156,39.078094 
	C117.910156,39.078094 117.863068,39.060959 117.663284,38.644089 
	C117.479179,38.383625 117.238121,38.196514 116.980812,38.027306 
	C116.980812,38.027306 116.919502,38.055550 116.744209,37.599426 
	C116.554962,37.313095 116.293808,37.128475 115.999504,36.999809 
	C115.999504,36.999809 115.955368,37.041790 115.750565,36.604591 
	C115.554138,36.329903 115.291481,36.154278 114.975647,36.021973 
	C114.975647,36.021973 114.931984,36.061356 114.623947,35.516293 
	C113.743637,35.007038 112.863335,34.497784 111.984863,34.015717 
	C111.984863,34.015717 112.012062,34.015842 111.817123,33.472057 
	C109.923195,31.132355 108.363403,31.583260 107.010429,33.997963 
	C107.010429,33.997963 107.022827,34.048447 106.588196,34.251270 
	C106.317230,34.446449 106.137489,34.705048 106.004379,35.001453 
	C106.004379,35.001453 106.025238,35.047928 105.568550,35.220757 
	C105.280731,35.412209 105.104950,35.677814 104.997154,36.000095 
	C104.997154,36.000095 105.020279,36.041939 104.579010,36.233646 
	C104.302025,36.427261 104.127716,36.689209 104.012955,37.011517 
	C104.012955,37.011517 104.020226,37.054737 103.580055,37.245060 
	C103.304665,37.439953 103.133408,37.702721 103.019821,38.020622 
	C103.019821,38.020622 103.035835,38.066147 102.604248,38.271023 
	C102.334938,38.462814 102.147514,38.715378 101.998741,39.003349 
	C101.998741,39.003349 102.037659,39.040588 101.452698,39.257523 
	C100.620491,40.174137 99.788277,41.090755 99.007423,42.018169 
	C99.007423,42.018169 99.000816,41.966125 98.399055,42.268478 
	C94.898201,47.075001 100.532379,46.860771 102.045670,48.952129 
	C102.045670,48.952129 102.088104,48.947414 102.397171,49.298252 
	C102.656509,49.504116 102.951180,49.593124 103.645828,49.751221 
	C103.645828,49.751221 104.014839,49.928337 104.179420,50.613182 
	C105.142395,52.102779 106.083145,53.607342 107.073334,55.078621 
	C108.749084,57.568565 110.387352,57.328671 111.993950,55.001659 
	C111.993950,55.001659 111.978371,54.950287 112.555313,54.737862 
	C113.337234,53.804615 114.119156,52.871368 114.943047,51.932297 
	C114.943047,51.932297 114.961845,51.894318 115.376671,51.688435 
	C115.634003,51.501621 115.823303,51.261223 115.987068,50.993603 
M115.678131,82.233253 
	C114.396500,84.068268 112.945564,85.810371 111.874939,87.761192 
	C110.451073,90.355705 109.679146,93.361076 108.006737,95.756874 
	C100.981010,105.821518 91.067482,110.640862 78.900955,111.121506 
	C74.953316,111.277451 69.968483,110.156738 67.271111,112.116005 
	C60.274693,117.197960 54.286221,123.667564 46.961655,130.447662 
	C52.352505,132.557571 56.432938,133.846375 60.219559,135.726837 
	C63.720932,137.465652 65.511658,136.305618 66.671722,133.071976 
	C67.953796,129.498245 70.260544,128.546555 74.061935,129.098221 
	C77.766479,129.635834 81.640244,129.306961 85.410614,129.000519 
	C88.655075,128.736801 91.121590,129.033081 92.699905,132.498428 
	C93.337097,133.897430 95.867416,135.765549 96.877930,135.431137 
	C101.097244,134.034760 105.171547,132.069336 109.056900,129.882385 
	C110.089462,129.301208 111.121788,126.780602 110.680130,125.850258 
	C108.615936,121.502136 111.077858,119.044838 113.744400,116.353813 
	C116.776085,113.294296 119.491783,109.916389 122.588860,106.929947 
	C123.624100,105.931694 125.717346,104.879173 126.801033,105.278549 
	C131.962067,107.180565 134.495987,105.399124 135.672684,100.299957 
	C136.185303,98.078430 137.286209,95.936943 138.417953,93.926888 
	C140.166077,90.822090 139.008392,88.628845 136.210342,87.494576 
	C131.828293,85.718170 131.549515,82.805992 132.261719,78.664268 
	C132.736954,75.900620 131.745163,72.884705 131.359818,69.547829 
	C125.644432,74.189117 120.952980,77.998909 115.678131,82.233253 
M21.049160,100.468666 
	C21.825014,102.191498 22.600868,103.914330 23.809135,106.597359 
	C29.874107,100.072319 35.206318,94.186028 40.721989,88.476990 
	C42.854233,86.269997 43.622570,84.211449 43.152847,80.968925 
	C40.560860,63.076393 51.050026,46.087246 67.722511,41.545345 
	C69.445007,41.076107 70.993637,39.334007 72.236931,37.857483 
	C76.219116,33.128273 80.019798,28.246241 84.231812,22.997931 
	C82.126976,19.738539 78.108398,20.917616 74.574928,21.639925 
	C69.881683,22.599312 65.791985,23.255457 63.391113,17.692907 
	C62.293240,15.149250 60.168388,14.878979 57.592110,16.326555 
	C54.593666,18.011333 51.355156,19.273098 48.203423,20.679436 
	C45.880291,21.716047 44.831970,23.129532 46.008945,25.775826 
	C47.563690,29.271479 46.350475,31.929819 43.487904,34.400146 
	C40.349117,37.108841 37.376198,40.104008 34.814766,43.355446 
	C33.004940,45.652809 31.435169,46.662113 28.539936,45.589508 
	C25.338978,44.403648 22.775187,44.845375 21.743320,48.865871 
	C21.006685,51.736046 19.987724,54.629452 18.536110,57.196613 
	C16.651386,60.529720 17.402792,62.266510 20.843002,63.595177 
	C23.111185,64.471191 25.191641,65.450417 24.889961,68.941948 
	C24.465664,73.852608 25.201206,78.857399 24.887211,83.786674 
	C24.761118,85.766136 23.432627,87.857529 22.152552,89.512009 
	C21.221718,90.715111 19.471956,91.284607 17.720392,92.362373 
	C18.786633,94.968994 19.777660,97.391739 21.049160,100.468666 
z"/>
<path fill="#580E81" opacity="1.000000" stroke="none" 
	d="
M90.894341,82.910652 
	C90.445679,83.222282 89.997017,83.533920 88.924301,83.980331 
	C86.846039,85.678352 85.391823,87.241577 83.937607,88.804810 
	C83.937607,88.804810 83.879356,88.933815 83.659775,89.062164 
	C83.239273,89.347954 83.099922,89.548248 83.022148,89.791397 
	C83.022148,89.791397 82.961479,89.910271 82.563690,90.001846 
	C80.101738,92.336464 78.037567,94.579506 75.973404,96.822540 
	C75.973396,96.822540 75.908699,96.949547 75.682434,97.081543 
	C75.247803,97.377090 75.099350,97.583710 75.010803,97.833397 
	C75.010803,97.833397 74.967712,97.945732 74.741898,98.084190 
	C74.295151,98.394806 74.126297,98.608177 74.009514,98.862770 
	C74.009514,98.862770 73.943665,98.947876 73.557449,99.023003 
	C71.082611,100.995522 68.993996,102.892914 66.905380,104.790306 
	C66.905380,104.790306 66.867485,104.905830 66.650215,105.048859 
	C66.228706,105.372108 66.069908,105.586060 65.956543,105.833740 
	C65.956543,105.833740 65.929512,105.928658 65.709290,106.064407 
	C65.270027,106.383820 65.101280,106.605736 64.982834,106.865898 
	C64.982834,106.865898 64.957680,106.943085 64.574142,107.010330 
	C62.443443,109.010162 60.696274,110.942757 58.949104,112.875359 
	C58.949108,112.875359 58.942471,112.945984 58.572376,113.017456 
	C56.800167,114.700462 55.398056,116.311981 53.995945,117.923508 
	C53.995945,117.923508 53.989433,117.997925 53.770561,118.117371 
	C53.323215,118.416374 53.148640,118.638336 53.027958,118.902695 
	C53.027958,118.902695 52.975311,118.981049 52.627731,119.069153 
	C51.525272,120.082329 50.770393,121.007393 50.015514,121.932457 
	C50.015514,121.932457 50.012852,122.006401 49.633263,122.037659 
	C43.855762,124.643265 38.765827,128.589005 32.186314,125.901764 
	C32.186314,125.901764 32.076973,125.894547 31.932709,125.680931 
	C31.610788,125.251953 31.393517,125.089577 31.136629,124.980202 
	C31.136629,124.980202 31.059160,124.950157 30.956928,124.574425 
	C27.669899,119.407715 26.069614,114.484589 29.329031,109.011932 
	C29.806494,108.210258 29.786802,107.112503 29.997147,106.151741 
	C29.997147,106.151741 30.039129,106.046631 30.425449,105.971130 
	C33.230957,103.318573 35.650143,100.741524 38.069328,98.164467 
	C38.069328,98.164467 38.094582,98.052246 38.310661,97.917679 
	C38.737652,97.611458 38.893063,97.399162 38.992981,97.146217 
	C38.992981,97.146217 39.050274,97.042320 39.278992,96.908379 
	C39.725552,96.594055 39.889973,96.373772 40.000969,96.113594 
	C40.000969,96.113594 40.032043,96.028847 40.253304,95.912704 
	C40.700871,95.631355 40.874004,95.422142 40.993961,95.168930 
	C40.993961,95.168930 41.041580,95.069016 41.434464,94.988159 
	C43.550270,92.931572 45.273193,90.955833 46.996117,88.980095 
	C46.996117,88.980095 47.005871,89.004539 47.322598,88.888641 
	C50.103451,85.928329 52.567581,83.083908 55.031708,80.239487 
	C55.031712,80.239487 55.089764,80.106483 55.476498,79.998032 
	C57.587616,77.974106 59.311996,76.058632 61.036377,74.143166 
	C61.036381,74.143166 61.046188,74.051300 61.261852,73.905029 
	C61.699654,73.569771 61.874210,73.343987 62.001179,73.081406 
	C62.001179,73.081406 62.018589,73.011032 62.244385,72.899033 
	C62.709133,72.608620 62.888012,72.382660 63.006821,72.109138 
	C63.006821,72.109138 63.022602,72.030342 63.244034,71.894791 
	C63.695789,71.568420 63.880470,71.340591 64.019501,71.075752 
	C64.019501,71.075752 64.016777,71.010406 64.239059,70.888031 
	C64.698898,70.566856 64.885109,70.328011 65.019974,70.049126 
	C65.019974,70.049126 64.995857,70.002129 65.210800,69.868561 
	C65.665604,69.526199 65.866959,69.285217 66.029793,69.012047 
	C66.178040,68.718269 66.384315,68.473373 67.045822,68.023697 
	C67.679527,67.570778 67.877281,67.338524 68.036285,67.073288 
	C68.170326,66.763680 68.366905,66.500839 69.139175,65.999756 
	C76.591476,60.975182 77.429565,58.588631 74.123878,52.981476 
	C74.123878,52.981476 74.058121,52.977386 74.126778,52.619926 
	C76.144936,46.564968 78.094437,40.867466 80.043930,35.169960 
	C80.043930,35.169960 80.117538,35.046265 80.343140,34.916782 
	C80.771317,34.623016 80.917252,34.418324 81.006538,34.173218 
	C81.006538,34.173218 81.033615,34.079929 81.414787,33.986168 
	C83.528893,32.250420 85.261826,30.608435 86.994751,28.966448 
	C86.994751,28.966446 87.007828,29.002338 87.290596,29.011856 
	C91.938477,27.534983 96.224014,25.651581 100.706947,24.753008 
	C102.561050,24.381365 104.838211,26.120344 106.922966,26.899418 
	C106.922966,26.899418 106.950844,26.959776 106.579880,27.032852 
	C104.459198,29.032631 102.709488,30.959330 100.959778,32.886032 
	C100.959778,32.886032 100.948997,32.965572 100.730515,33.088409 
	C100.285408,33.389473 100.110191,33.608768 99.986359,33.869133 
	C99.986359,33.869133 99.954041,33.955894 99.730148,34.073357 
	C99.278572,34.358028 99.099281,34.566795 98.968384,34.817120 
	C98.968384,34.817120 98.917564,34.925045 98.693222,35.065468 
	C98.257324,35.390671 98.094604,35.611450 97.980713,35.868229 
	C97.980713,35.868229 97.947899,35.955101 97.725853,36.077133 
	C97.280418,36.373848 97.107468,36.589069 96.984955,36.844830 
	C96.984955,36.844830 96.934479,36.946533 96.714020,37.058121 
	C96.279228,37.318295 96.118027,37.511269 96.009949,37.748623 
	C96.009949,37.748623 95.915207,37.902370 95.681412,38.047943 
	C95.246002,38.351635 95.100128,38.550632 95.009987,38.790508 
	C95.009987,38.790508 94.926689,38.926071 94.695892,39.055740 
	C94.257721,39.335155 94.104408,39.527908 94.005157,39.763668 
	C94.005157,39.763668 93.884705,39.935143 93.643608,40.111938 
	C93.212082,40.476910 93.077255,40.698879 92.998032,40.954643 
	C92.998032,40.954643 93.024330,41.008282 92.830597,41.358826 
	C92.690254,47.563969 90.908600,54.323605 93.241570,59.053925 
	C96.470169,65.600227 104.317215,61.144615 110.088837,61.922821 
	C113.351936,62.362797 116.351456,61.081268 117.025871,57.119118 
	C117.025871,57.119118 117.047348,57.042194 117.425613,56.971912 
	C121.402702,54.268547 125.001518,51.635464 128.600327,49.002380 
	C128.976776,49.259155 129.353210,49.515926 129.729660,49.772697 
	C128.487625,55.155899 127.245590,60.539101 126.003563,65.922302 
	C126.003563,65.922302 125.989784,66.003151 125.766830,66.115128 
	C125.311653,66.390770 125.131302,66.599281 125.002815,66.852661 
	C125.002815,66.852661 124.951324,66.952446 124.722054,67.080139 
	C124.269798,67.381958 124.096512,67.596275 123.972931,67.850792 
	C123.972931,67.850792 123.940971,67.935890 123.595619,68.075989 
	C116.033783,75.305923 107.810417,79.694809 97.264816,78.079323 
	C96.579605,77.974358 95.771660,78.670601 95.020805,78.994148 
	C95.020805,78.994148 95.013557,79.024101 94.805618,79.119553 
	C94.353012,79.379242 94.158028,79.589546 94.012733,79.845917 
	C94.012733,79.845917 93.954659,79.938820 93.607368,80.047592 
	C92.471504,81.074463 91.682922,81.992561 90.894341,82.910652 
M32.508137,112.260056 
	C32.288818,112.461441 32.116779,112.697311 32.006916,113.006989 
	C32.006916,113.006989 31.966145,112.996521 31.451159,113.449791 
	C29.293812,116.926964 29.915087,119.520187 33.947712,121.049255 
	C33.947712,121.049255 33.978172,121.120964 34.343193,121.632423 
	C36.101963,123.438713 37.928040,124.399536 40.033573,122.018173 
	C40.033573,122.018173 40.101078,122.028954 40.494804,121.882126 
	C40.749496,121.751190 40.966938,121.574409 41.584320,121.190483 
	C41.584320,121.190483 42.039871,121.092354 42.707939,120.956619 
	C46.959030,118.931458 46.926682,116.093422 44.111485,112.429504 
	C44.111485,112.429504 44.001949,112.085892 43.712517,111.670753 
	C43.459969,111.448929 43.207424,111.227104 43.012272,110.990746 
	C43.012272,110.990746 43.009315,111.049881 42.570217,110.695648 
	C42.062073,110.457840 41.553925,110.220032 40.989502,109.991402 
	C40.989502,109.991402 41.008507,109.937607 40.613983,109.428162 
	C38.730682,109.606033 36.847378,109.783905 34.625641,110.359688 
	C34.350620,110.572235 34.075600,110.784790 33.454567,111.187836 
	C33.239826,111.353127 33.085453,111.562866 32.955772,111.929085 
	C32.955772,111.929085 32.859230,111.996170 32.508137,112.260056 
z"/>
<path fill="#56127A" opacity="1.000000" stroke="none" 
	d="
M115.969833,82.020973 
	C120.952980,77.998909 125.644432,74.189117 131.359818,69.547829 
	C131.745163,72.884705 132.736954,75.900620 132.261719,78.664268 
	C131.549515,82.805992 131.828293,85.718170 136.210342,87.494576 
	C139.008392,88.628845 140.166077,90.822090 138.417953,93.926888 
	C137.286209,95.936943 136.185303,98.078430 135.672684,100.299957 
	C134.495987,105.399124 131.962067,107.180565 126.801033,105.278549 
	C125.717346,104.879173 123.624100,105.931694 122.588860,106.929947 
	C119.491783,109.916389 116.776085,113.294296 113.744400,116.353813 
	C111.077858,119.044838 108.615936,121.502136 110.680130,125.850258 
	C111.121788,126.780602 110.089462,129.301208 109.056900,129.882385 
	C105.171547,132.069336 101.097244,134.034760 96.877930,135.431137 
	C95.867416,135.765549 93.337097,133.897430 92.699905,132.498428 
	C91.121590,129.033081 88.655075,128.736801 85.410614,129.000519 
	C81.640244,129.306961 77.766479,129.635834 74.061935,129.098221 
	C70.260544,128.546555 67.953796,129.498245 66.671722,133.071976 
	C65.511658,136.305618 63.720932,137.465652 60.219559,135.726837 
	C56.432938,133.846375 52.352505,132.557571 46.961655,130.447662 
	C54.286221,123.667564 60.274693,117.197960 67.271111,112.116005 
	C69.968483,110.156738 74.953316,111.277451 78.900955,111.121506 
	C91.067482,110.640862 100.981010,105.821518 108.006737,95.756874 
	C109.679146,93.361076 110.451073,90.355705 111.874939,87.761192 
	C112.945564,85.810371 114.396500,84.068268 115.969833,82.020973 
z"/>
<path fill="#56127A" opacity="1.000000" stroke="none" 
	d="
M20.908924,100.141579 
	C19.777660,97.391739 18.786633,94.968994 17.720392,92.362373 
	C19.471956,91.284607 21.221718,90.715111 22.152552,89.512009 
	C23.432627,87.857529 24.761118,85.766136 24.887211,83.786674 
	C25.201206,78.857399 24.465664,73.852608 24.889961,68.941948 
	C25.191641,65.450417 23.111185,64.471191 20.843002,63.595177 
	C17.402792,62.266510 16.651386,60.529720 18.536110,57.196613 
	C19.987724,54.629452 21.006685,51.736046 21.743320,48.865871 
	C22.775187,44.845375 25.338978,44.403648 28.539936,45.589508 
	C31.435169,46.662113 33.004940,45.652809 34.814766,43.355446 
	C37.376198,40.104008 40.349117,37.108841 43.487904,34.400146 
	C46.350475,31.929819 47.563690,29.271479 46.008945,25.775826 
	C44.831970,23.129532 45.880291,21.716047 48.203423,20.679436 
	C51.355156,19.273098 54.593666,18.011333 57.592110,16.326555 
	C60.168388,14.878979 62.293240,15.149250 63.391113,17.692907 
	C65.791985,23.255457 69.881683,22.599312 74.574928,21.639925 
	C78.108398,20.917616 82.126976,19.738539 84.231812,22.997931 
	C80.019798,28.246241 76.219116,33.128273 72.236931,37.857483 
	C70.993637,39.334007 69.445007,41.076107 67.722511,41.545345 
	C51.050026,46.087246 40.560860,63.076393 43.152847,80.968925 
	C43.622570,84.211449 42.854233,86.269997 40.721989,88.476990 
	C35.206318,94.186028 29.874107,100.072319 23.809135,106.597359 
	C22.600868,103.914330 21.825014,102.191498 20.908924,100.141579 
z"/>
<path fill="#580E81" opacity="1.000000" stroke="none" 
	d="
M118.783615,40.389992 
	C118.783615,40.389988 118.872139,40.597973 119.043442,40.942009 
	C119.484825,41.525063 119.754921,41.764084 120.025009,42.003101 
	C120.025009,42.003101 119.992867,42.003429 119.997612,42.402336 
	C119.973709,44.175186 119.945068,45.549129 119.916420,46.923077 
	C119.916420,46.923077 119.973755,46.957733 119.731934,47.062771 
	C119.227585,47.364403 119.054070,47.621159 118.969551,47.938068 
	C118.969551,47.938068 118.983055,47.979958 118.758652,48.100853 
	C118.282585,48.425888 118.098892,48.679310 117.983185,48.982006 
	C117.983185,48.982006 118.000099,49.000000 117.780640,49.113304 
	C117.299278,49.431259 117.107330,49.688183 116.985352,49.997379 
	C116.985352,49.997379 116.996155,49.996361 116.789642,50.109398 
	C116.324226,50.416500 116.121407,50.657726 115.974678,50.946114 
	C115.974678,50.946114 115.987068,50.993603 115.749832,51.073059 
	C115.239952,51.333668 115.056374,51.580936 114.961845,51.894318 
	C114.961845,51.894318 114.943047,51.932297 114.615936,52.024475 
	C113.518669,53.061199 112.748520,54.005745 111.978371,54.950287 
	C111.978371,54.950287 111.993950,55.001659 111.634903,54.894604 
	C108.855522,53.167812 106.435181,51.548077 104.014839,49.928337 
	C104.014839,49.928337 103.645828,49.751221 103.298813,49.492882 
	C102.695251,49.044403 102.407356,48.948696 102.088104,48.947414 
	C102.088104,48.947414 102.045670,48.952129 101.958176,48.598442 
	C100.914055,46.151882 99.957436,44.059002 99.000824,41.966125 
	C99.000816,41.966125 99.007423,42.018169 99.294121,41.925369 
	C100.399765,40.901905 101.218712,39.971245 102.037659,39.040588 
	C102.037659,39.040588 101.998741,39.003349 102.234360,38.910858 
	C102.738022,38.627380 102.926643,38.376640 103.035835,38.066147 
	C103.035835,38.066147 103.019821,38.020622 103.247345,37.912346 
	C103.730011,37.607674 103.911797,37.357899 104.020226,37.054737 
	C104.020226,37.054737 104.012955,37.011517 104.246429,36.909088 
	C104.743599,36.610813 104.923721,36.355904 105.020279,36.041939 
	C105.020279,36.041939 104.997154,36.000095 105.224014,35.892490 
	C105.706566,35.589298 105.898018,35.343647 106.025238,35.047928 
	C106.025238,35.047928 106.004379,35.001453 106.239685,34.907227 
	C106.741234,34.618073 106.923843,34.363220 107.022827,34.048447 
	C107.022827,34.048447 107.010429,33.997963 107.441452,34.020271 
	C109.252335,34.033669 110.632202,34.024757 112.012062,34.015842 
	C112.012062,34.015842 111.984863,34.015717 112.155334,34.259880 
	C113.194527,35.023148 114.063255,35.542252 114.931984,36.061356 
	C114.931984,36.061356 114.975647,36.021973 115.085114,36.256474 
	C115.395859,36.746849 115.649452,36.930454 115.955368,37.041790 
	C115.955368,37.041790 115.999504,36.999809 116.098915,37.227158 
	C116.392708,37.710064 116.633102,37.910412 116.919502,38.055550 
	C116.919502,38.055550 116.980812,38.027306 117.063171,38.262501 
	C117.326683,38.759384 117.565857,38.947140 117.863068,39.060959 
	C117.863068,39.060959 117.910156,39.078094 118.015144,39.339706 
	C118.341293,39.864208 118.562454,40.127102 118.783615,40.389992 
z"/>
<path fill="#4E1D62" opacity="1.000000" stroke="none" 
	d="
M126.290085,65.726807 
	C127.245590,60.539101 128.487625,55.155899 129.729660,49.772697 
	C129.353210,49.515926 128.976776,49.259155 128.600327,49.002380 
	C125.001518,51.635464 121.402702,54.268547 117.464874,56.964569 
	C121.046608,52.888298 124.967361,48.749084 129.779755,43.668552 
	C132.441940,52.576675 129.916382,59.112972 126.290085,65.726807 
z"/>
<path fill="#4E1D62" opacity="1.000000" stroke="none" 
	d="
M116.710541,57.264542 
	C116.351456,61.081268 113.351936,62.362797 110.088837,61.922821 
	C104.317215,61.144615 96.470169,65.600227 93.241570,59.053925 
	C90.908600,54.323605 92.690254,47.563969 92.801468,41.365425 
	C93.277206,46.130070 93.367882,51.268246 94.046761,56.327492 
	C94.227791,57.676575 96.020561,59.485176 97.403625,59.858150 
	C100.392326,60.664131 103.601021,60.629234 106.708481,61.026276 
	C110.593819,61.522713 113.895607,60.569756 116.710541,57.264542 
z"/>
<path fill="#4E1D62" opacity="1.000000" stroke="none" 
	d="
M95.403549,79.028168 
	C95.771660,78.670601 96.579605,77.974358 97.264816,78.079323 
	C107.810417,79.694809 116.033783,75.305923 123.550850,68.083847 
	C119.601555,77.097649 107.380363,81.935837 95.403549,79.028168 
z"/>
<path fill="#4E1D62" opacity="1.000000" stroke="none" 
	d="
M107.186920,26.789993 
	C104.838211,26.120344 102.561050,24.381365 100.706947,24.753008 
	C96.224014,25.651581 91.938477,27.534983 87.273087,29.005310 
	C92.770363,23.903028 99.549576,22.211590 109.726288,23.601032 
	C108.827774,24.817078 108.139320,25.748825 107.186920,26.789993 
z"/>
<path fill="#4E1D62" opacity="1.000000" stroke="none" 
	d="
M29.704521,106.311188 
	C29.786802,107.112503 29.806494,108.210258 29.329031,109.011932 
	C26.069614,114.484589 27.669899,119.407715 30.952488,124.533119 
	C23.768826,119.089592 23.360525,114.504906 29.704521,106.311188 
z"/>
<path fill="#4E1D62" opacity="1.000000" stroke="none" 
	d="
M79.733574,35.305931 
	C78.094437,40.867466 76.144936,46.564968 74.134598,52.587929 
	C74.487236,49.127045 74.507614,45.238087 75.459358,41.592262 
	C76.044708,39.350025 78.053535,37.479393 79.733574,35.305931 
z"/>
<path fill="#4E1D62" opacity="1.000000" stroke="none" 
	d="
M32.361496,126.205856 
	C38.765827,128.589005 43.855762,124.643265 49.596783,122.043839 
	C48.577385,123.154991 47.240322,124.323502 45.847591,125.421394 
	C41.659935,128.722534 37.285118,129.960876 32.361496,126.205856 
z"/>
<path fill="#4E1D62" opacity="1.000000" stroke="none" 
	d="
M74.137390,53.359440 
	C77.429565,58.588631 76.591476,60.975182 69.348526,65.866959 
	C69.829330,64.803978 70.377655,63.299179 71.443954,62.429321 
	C74.344963,60.062752 75.215134,57.247715 74.137390,53.359440 
z"/>
<path fill="#4E1D62" opacity="1.000000" stroke="none" 
	d="
M54.737495,80.369438 
	C52.567581,83.083908 50.103451,85.928329 47.309715,88.886246 
	C49.467831,86.166283 51.955559,83.332832 54.737495,80.369438 
z"/>
<path fill="#4E1D62" opacity="1.000000" stroke="none" 
	d="
M37.756664,98.269638 
	C35.650143,100.741524 33.230957,103.318573 30.473965,105.941986 
	C32.572105,103.450508 35.008053,100.912666 37.756664,98.269638 
z"/>
<path fill="#4E1D62" opacity="1.000000" stroke="none" 
	d="
M76.267159,96.689583 
	C78.037567,94.579506 80.101738,92.336464 82.506699,90.036545 
	C80.751968,92.171989 78.656441,94.364304 76.267159,96.689583 
z"/>
<path fill="#4B2552" opacity="1.000000" stroke="none" 
	d="
M104.097130,50.270760 
	C106.435181,51.548077 108.855522,53.167812 111.617020,54.872719 
	C110.387352,57.328671 108.749084,57.568565 107.073334,55.078621 
	C106.083145,53.607342 105.142395,52.102779 104.097130,50.270760 
z"/>
<path fill="#4E1D62" opacity="1.000000" stroke="none" 
	d="
M59.244209,112.740768 
	C60.696274,110.942757 62.443443,109.010162 64.534225,107.017685 
	C63.098331,108.840599 61.318821,110.723389 59.244209,112.740768 
z"/>
<path fill="#4E1D62" opacity="1.000000" stroke="none" 
	d="
M46.703194,89.129982 
	C45.273193,90.955833 43.550270,92.931572 41.485497,94.966751 
	C42.899185,93.110756 44.654728,91.195312 46.703194,89.129982 
z"/>
<path fill="#4E1D62" opacity="1.000000" stroke="none" 
	d="
M67.209534,104.667450 
	C68.993996,102.892914 71.082611,100.995522 73.504471,99.032410 
	C71.729706,100.825989 69.621696,102.685295 67.209534,104.667450 
z"/>
<path fill="#4E1D62" opacity="1.000000" stroke="none" 
	d="
M101.258011,32.756706 
	C102.709488,30.959330 104.459198,29.032631 106.547028,27.037930 
	C105.108841,28.855749 103.332542,30.741568 101.258011,32.756706 
z"/>
<path fill="#4B2552" opacity="1.000000" stroke="none" 
	d="
M98.699936,42.117302 
	C99.957436,44.059002 100.914055,46.151882 101.959885,48.577160 
	C100.532379,46.860771 94.898201,47.075001 98.699936,42.117302 
z"/>
<path fill="#4E1D62" opacity="1.000000" stroke="none" 
	d="
M86.669144,29.047869 
	C85.261826,30.608435 83.528893,32.250420 81.458679,33.965378 
	C82.862106,32.401997 84.602814,30.765642 86.669144,29.047869 
z"/>
<path fill="#4E1D62" opacity="1.000000" stroke="none" 
	d="
M60.756950,74.300812 
	C59.311996,76.058632 57.587616,77.974106 55.535706,79.956085 
	C56.964622,78.167877 58.721073,76.313171 60.756950,74.300812 
z"/>
<path fill="#4E1D62" opacity="1.000000" stroke="none" 
	d="
M84.230240,88.682098 
	C85.391823,87.241577 86.846039,85.678352 88.638290,84.041008 
	C87.491837,85.497726 86.007355,87.028564 84.230240,88.682098 
z"/>
<path fill="#4E1D62" opacity="1.000000" stroke="none" 
	d="
M54.285645,117.788292 
	C55.398056,116.311981 56.800167,114.700462 58.537163,113.021744 
	C57.439812,114.520721 56.007576,116.086899 54.285645,117.788292 
z"/>
<path fill="#4B2552" opacity="1.000000" stroke="none" 
	d="
M111.914597,33.743950 
	C110.632202,34.024757 109.252335,34.033669 107.458344,34.043072 
	C108.363403,31.583260 109.923195,31.132355 111.914597,33.743950 
z"/>
<path fill="#4B2552" opacity="1.000000" stroke="none" 
	d="
M120.181595,46.817390 
	C119.945068,45.549129 119.973709,44.175186 120.006271,42.388702 
	C122.543785,43.334518 122.719589,44.910240 120.181595,46.817390 
z"/>
<path fill="#4E1D62" opacity="1.000000" stroke="none" 
	d="
M50.283455,121.802383 
	C50.770393,121.007393 51.525272,120.082329 52.581451,119.078430 
	C52.105633,119.890503 51.328514,120.781403 50.283455,121.802383 
z"/>
<path fill="#4B2552" opacity="1.000000" stroke="none" 
	d="
M112.266846,54.844078 
	C112.748520,54.005745 113.518669,53.061199 114.594948,52.027390 
	C114.119156,52.871368 113.337234,53.804615 112.266846,54.844078 
z"/>
<path fill="#4B2552" opacity="1.000000" stroke="none" 
	d="
M101.745178,39.149055 
	C101.218712,39.971245 100.399765,40.901905 99.268440,41.919968 
	C99.788277,41.090755 100.620491,40.174137 101.745178,39.149055 
z"/>
<path fill="#4E1D62" opacity="1.000000" stroke="none" 
	d="
M91.174347,82.782684 
	C91.682922,81.992561 92.471504,81.074463 93.554718,80.062729 
	C93.051033,80.864296 92.252693,81.759499 91.174347,82.782684 
z"/>
<path fill="#4B2552" opacity="1.000000" stroke="none" 
	d="
M114.777969,35.788826 
	C114.063255,35.542252 113.194527,35.023148 112.154411,34.246288 
	C112.863335,34.497784 113.743637,35.007038 114.777969,35.788826 
z"/>
<path fill="#4E1D62" opacity="1.000000" stroke="none" 
	d="
M96.199005,37.689606 
	C96.118027,37.511269 96.279228,37.318295 96.662109,37.081108 
	C96.773491,37.267944 96.625954,37.480637 96.199005,37.689606 
z"/>
<path fill="#4E1D62" opacity="1.000000" stroke="none" 
	d="
M38.794235,97.214134 
	C38.893063,97.399162 38.737652,97.611458 38.357422,97.884193 
	C38.205807,97.682434 38.341599,97.448021 38.794235,97.214134 
z"/>
<path fill="#4B2552" opacity="1.000000" stroke="none" 
	d="
M103.800140,37.149899 
	C103.911797,37.357899 103.730011,37.607674 103.270584,37.918716 
	C103.133408,37.702721 103.304665,37.439953 103.800140,37.149899 
z"/>
<path fill="#4E1D62" opacity="1.000000" stroke="none" 
	d="
M65.182991,106.778732 
	C65.101280,106.605736 65.270027,106.383820 65.663841,106.083649 
	C65.786003,106.271019 65.634178,106.512489 65.182991,106.778732 
z"/>
<path fill="#4B2552" opacity="1.000000" stroke="none" 
	d="
M116.831856,37.827488 
	C116.633102,37.910412 116.392708,37.710064 116.079544,37.250038 
	C116.293808,37.128475 116.554962,37.313095 116.831856,37.827488 
z"/>
<path fill="#4E1D62" opacity="1.000000" stroke="none" 
	d="
M66.148346,105.749573 
	C66.069908,105.586060 66.228706,105.372108 66.597290,105.078766 
	C66.722252,105.259811 66.581757,105.493073 66.148346,105.749573 
z"/>
<path fill="#4E1D62" opacity="1.000000" stroke="none" 
	d="
M95.197693,38.730034 
	C95.100128,38.550632 95.246002,38.351635 95.608688,38.101482 
	C95.752632,38.294163 95.624504,38.514198 95.197693,38.730034 
z"/>
<path fill="#4E1D62" opacity="1.000000" stroke="none" 
	d="
M74.216064,98.796509 
	C74.126297,98.608177 74.295151,98.394806 74.692375,98.118347 
	C74.833572,98.323547 74.684891,98.562286 74.216064,98.796509 
z"/>
<path fill="#4B2552" opacity="1.000000" stroke="none" 
	d="
M102.820038,38.168587 
	C102.926643,38.376640 102.738022,38.627380 102.255966,38.923538 
	C102.147514,38.715378 102.334938,38.462814 102.820038,38.168587 
z"/>
<path fill="#4E1D62" opacity="1.000000" stroke="none" 
	d="
M75.193237,97.756653 
	C75.099350,97.583710 75.247803,97.377090 75.623184,97.121155 
	C75.744698,97.304848 75.606522,97.521889 75.193237,97.756653 
z"/>
<path fill="#4B2552" opacity="1.000000" stroke="none" 
	d="
M117.763176,38.852524 
	C117.565857,38.947140 117.326683,38.759384 117.042831,38.290222 
	C117.238121,38.196514 117.479179,38.383625 117.763176,38.852524 
z"/>
<path fill="#4E1D62" opacity="1.000000" stroke="none" 
	d="
M100.190941,33.788754 
	C100.110191,33.608768 100.285408,33.389473 100.692673,33.101799 
	C100.811852,33.296307 100.652588,33.534981 100.190941,33.788754 
z"/>
<path fill="#4B2552" opacity="1.000000" stroke="none" 
	d="
M115.852966,36.823189 
	C115.649452,36.930454 115.395859,36.746849 115.078583,36.284348 
	C115.291481,36.154278 115.554138,36.329903 115.852966,36.823189 
z"/>
<path fill="#4B2552" opacity="1.000000" stroke="none" 
	d="
M104.799644,36.137794 
	C104.923721,36.355904 104.743599,36.610813 104.267990,36.913071 
	C104.127716,36.689209 104.302025,36.427261 104.799644,36.137794 
z"/>
<path fill="#4E1D62" opacity="1.000000" stroke="none" 
	d="
M97.183601,36.762699 
	C97.107468,36.589069 97.280418,36.373848 97.681740,36.091637 
	C97.789772,36.277462 97.630630,36.509617 97.183601,36.762699 
z"/>
<path fill="#4E1D62" opacity="1.000000" stroke="none" 
	d="
M53.234825,118.823547 
	C53.148640,118.638336 53.323215,118.416374 53.734718,118.127892 
	C53.858635,118.326149 53.699947,118.567955 53.234825,118.823547 
z"/>
<path fill="#4B2552" opacity="1.000000" stroke="none" 
	d="
M105.796890,35.134342 
	C105.898018,35.343647 105.706566,35.589298 105.246040,35.901230 
	C105.104950,35.677814 105.280731,35.412209 105.796890,35.134342 
z"/>
<path fill="#4E1D62" opacity="1.000000" stroke="none" 
	d="
M98.179779,35.784019 
	C98.094604,35.611450 98.257324,35.390671 98.639053,35.090439 
	C98.772583,35.280037 98.629120,35.521641 98.179779,35.784019 
z"/>
<path fill="#4E1D62" opacity="1.000000" stroke="none" 
	d="
M31.210014,125.183548 
	C31.393517,125.089577 31.610788,125.251953 31.896690,125.639648 
	C31.694435,125.789047 31.453922,125.647354 31.210014,125.183548 
z"/>
<path fill="#4B2552" opacity="1.000000" stroke="none" 
	d="
M119.913803,41.749016 
	C119.754921,41.764084 119.484825,41.525063 119.073112,41.051064 
	C119.221863,41.042362 119.512238,41.268650 119.913803,41.749016 
z"/>
<path fill="#4B2552" opacity="1.000000" stroke="none" 
	d="
M119.176559,47.827679 
	C119.054070,47.621159 119.227585,47.364403 119.701111,47.062149 
	C119.817894,47.267044 119.641716,47.520641 119.176559,47.827679 
z"/>
<path fill="#4B2552" opacity="1.000000" stroke="none" 
	d="
M102.242638,49.122833 
	C102.407356,48.948696 102.695251,49.044403 103.116486,49.399910 
	C102.951180,49.593124 102.656509,49.504116 102.242638,49.122833 
z"/>
<path fill="#4B2552" opacity="1.000000" stroke="none" 
	d="
M117.214088,49.898468 
	C117.107330,49.688183 117.299278,49.431259 117.771378,49.105293 
	C117.909615,49.326927 117.730034,49.598785 117.214088,49.898468 
z"/>
<path fill="#4B2552" opacity="1.000000" stroke="none" 
	d="
M106.805511,34.149857 
	C106.923843,34.363220 106.741234,34.618073 106.261993,34.920036 
	C106.137489,34.705048 106.317230,34.446449 106.805511,34.149857 
z"/>
<path fill="#4B2552" opacity="1.000000" stroke="none" 
	d="
M116.212860,50.870842 
	C116.121407,50.657726 116.324226,50.416500 116.789825,50.103859 
	C116.814705,50.255375 116.632881,50.525471 116.212860,50.870842 
z"/>
<path fill="#4B2552" opacity="1.000000" stroke="none" 
	d="
M115.169258,51.791374 
	C115.056374,51.580936 115.239952,51.333668 115.728592,51.059883 
	C115.823303,51.261223 115.634003,51.501621 115.169258,51.791374 
z"/>
<path fill="#4E1D62" opacity="1.000000" stroke="none" 
	d="
M99.174934,34.749966 
	C99.099281,34.566795 99.278572,34.358028 99.686272,34.088112 
	C99.804329,34.287170 99.642723,34.519642 99.174934,34.749966 
z"/>
<path fill="#4E1D62" opacity="1.000000" stroke="none" 
	d="
M125.209541,66.787491 
	C125.131302,66.599281 125.311653,66.390770 125.728516,66.129745 
	C125.843880,66.331779 125.678246,66.561760 125.209541,66.787491 
z"/>
<path fill="#4E1D62" opacity="1.000000" stroke="none" 
	d="
M67.817032,67.167450 
	C67.877281,67.338524 67.679527,67.570778 67.255363,67.902924 
	C67.146591,67.710777 67.323273,67.452713 67.817032,67.167450 
z"/>
<path fill="#4E1D62" opacity="1.000000" stroke="none" 
	d="
M124.177689,67.777435 
	C124.096512,67.596275 124.269798,67.381958 124.670105,67.101456 
	C124.797218,67.300133 124.642227,67.536469 124.177689,67.777435 
z"/>
<path fill="#4E1D62" opacity="1.000000" stroke="none" 
	d="
M80.834061,34.259579 
	C80.917252,34.418324 80.771317,34.623016 80.405830,34.881428 
	C80.306023,34.714836 80.445580,34.504963 80.834061,34.259579 
z"/>
<path fill="#4E1D62" opacity="1.000000" stroke="none" 
	d="
M65.800056,69.106079 
	C65.866959,69.285217 65.665604,69.526199 65.236267,69.875206 
	C65.103928,69.668304 65.278435,69.396530 65.800056,69.106079 
z"/>
<path fill="#4E1D62" opacity="1.000000" stroke="none" 
	d="
M39.803062,96.197632 
	C39.889973,96.373772 39.725552,96.594055 39.332653,96.883095 
	C39.206551,96.691864 39.355736,96.455170 39.803062,96.197632 
z"/>
<path fill="#4E1D62" opacity="1.000000" stroke="none" 
	d="
M64.811386,70.154480 
	C64.885109,70.328011 64.698898,70.566856 64.271530,70.891846 
	C64.167671,70.704994 64.341354,70.452263 64.811386,70.154480 
z"/>
<path fill="#4E1D62" opacity="1.000000" stroke="none" 
	d="
M63.804592,71.160774 
	C63.880470,71.340591 63.695789,71.568420 63.281815,71.881119 
	C63.153660,71.680252 63.317497,71.427856 63.804592,71.160774 
z"/>
<path fill="#4E1D62" opacity="1.000000" stroke="none" 
	d="
M62.805439,72.201378 
	C62.888012,72.382660 62.709133,72.608620 62.280205,72.893440 
	C62.180733,72.705658 62.352013,72.470245 62.805439,72.201378 
z"/>
<path fill="#4E1D62" opacity="1.000000" stroke="none" 
	d="
M61.794312,73.168686 
	C61.874210,73.343987 61.699654,73.569771 61.300171,73.879242 
	C61.171295,73.685318 61.326168,73.437401 61.794312,73.168686 
z"/>
<path fill="#4E1D62" opacity="1.000000" stroke="none" 
	d="
M93.177574,40.857868 
	C93.077255,40.698879 93.212082,40.476910 93.559616,40.174591 
	C93.713715,40.353931 93.593842,40.587482 93.177574,40.857868 
z"/>
<path fill="#4E1D62" opacity="1.000000" stroke="none" 
	d="
M94.223381,79.774277 
	C94.158028,79.589546 94.353012,79.379242 94.790840,79.115181 
	C94.878357,79.306648 94.695030,79.535744 94.223381,79.774277 
z"/>
<path fill="#4B2552" opacity="1.000000" stroke="none" 
	d="
M118.740219,40.120422 
	C118.562454,40.127102 118.341293,39.864208 118.028015,39.361198 
	C118.189552,39.364342 118.443192,39.607601 118.740219,40.120422 
z"/>
<path fill="#4E1D62" opacity="1.000000" stroke="none" 
	d="
M94.196953,39.714294 
	C94.104408,39.527908 94.257721,39.335155 94.629364,39.099369 
	C94.769737,39.299610 94.634781,39.516808 94.196953,39.714294 
z"/>
<path fill="#4E1D62" opacity="1.000000" stroke="none" 
	d="
M83.200409,89.721786 
	C83.099922,89.548248 83.239273,89.347954 83.600967,89.101562 
	C83.730766,89.283768 83.603073,89.496956 83.200409,89.721786 
z"/>
<path fill="#4B2552" opacity="1.000000" stroke="none" 
	d="
M118.207550,48.884819 
	C118.098892,48.679310 118.282585,48.425888 118.736786,48.099327 
	C118.883850,48.318279 118.714714,48.588524 118.207550,48.884819 
z"/>
<path fill="#4E1D62" opacity="1.000000" stroke="none" 
	d="
M40.793053,95.239731 
	C40.874004,95.422142 40.700871,95.631355 40.295753,95.897369 
	C40.181507,95.704071 40.339905,95.474861 40.793053,95.239731 
z"/>
<path fill="#000000" opacity="1.000000" stroke="none" 
	d="
M33.800579,110.997345 
	C34.075600,110.784790 34.350620,110.572235 35.138969,110.136963 
	C37.437702,109.922020 39.223106,109.929817 41.008507,109.937607 
	C41.008507,109.937607 40.989502,109.991402 41.158577,110.249664 
	C41.888206,110.688576 42.448761,110.869225 43.009315,111.049881 
	C43.009315,111.049881 43.012272,110.990746 43.092400,111.234673 
	C43.449005,111.681030 43.725479,111.883461 44.001953,112.085892 
	C44.001949,112.085892 44.111485,112.429504 44.179245,112.950142 
	C43.511299,116.011307 42.775585,118.551826 42.039871,121.092354 
	C42.039871,121.092354 41.584320,121.190483 41.145359,121.302170 
	C40.423695,121.539322 40.221920,121.744354 40.101078,122.028954 
	C40.101078,122.028954 40.033573,122.018173 39.639366,122.034500 
	C37.489498,121.740875 35.733837,121.430916 33.978172,121.120964 
	C33.978172,121.120964 33.947712,121.049255 33.748062,120.717911 
	C33.020992,117.923225 32.493568,115.459869 31.966145,112.996521 
	C31.966145,112.996521 32.006916,113.006989 32.206955,112.888260 
	C32.672230,112.578682 32.822975,112.320892 32.859230,111.996170 
	C32.859230,111.996170 32.955772,111.929085 33.156548,111.790894 
	C33.588287,111.490562 33.736038,111.272102 33.800579,110.997345 
z"/>
<path fill="#4E1D62" opacity="1.000000" stroke="none" 
	d="
M31.708651,113.223160 
	C32.493568,115.459869 33.020992,117.923225 33.709152,120.719765 
	C29.915087,119.520187 29.293812,116.926964 31.708651,113.223160 
z"/>
<path fill="#4E1D62" opacity="1.000000" stroke="none" 
	d="
M42.373905,121.024490 
	C42.775585,118.551826 43.511299,116.011307 44.255566,113.113518 
	C46.926682,116.093422 46.959030,118.931458 42.373905,121.024490 
z"/>
<path fill="#4E1D62" opacity="1.000000" stroke="none" 
	d="
M34.160683,121.376694 
	C35.733837,121.430916 37.489498,121.740875 39.630058,122.067383 
	C37.928040,124.399536 36.101963,123.438713 34.160683,121.376694 
z"/>
<path fill="#4E1D62" opacity="1.000000" stroke="none" 
	d="
M40.811245,109.682884 
	C39.223106,109.929817 37.437702,109.922020 35.308189,109.938004 
	C36.847378,109.783905 38.730682,109.606033 40.811245,109.682884 
z"/>
<path fill="#4E1D62" opacity="1.000000" stroke="none" 
	d="
M42.789764,110.872765 
	C42.448761,110.869225 41.888206,110.688576 41.186714,110.245071 
	C41.553925,110.220032 42.062073,110.457840 42.789764,110.872765 
z"/>
<path fill="#4E1D62" opacity="1.000000" stroke="none" 
	d="
M33.627571,111.092590 
	C33.736038,111.272102 33.588287,111.490562 33.174385,111.734886 
	C33.085453,111.562866 33.239826,111.353127 33.627571,111.092590 
z"/>
<path fill="#4E1D62" opacity="1.000000" stroke="none" 
	d="
M43.857235,111.878326 
	C43.725479,111.883461 43.449005,111.681030 43.063705,111.241943 
	C43.207424,111.227104 43.459969,111.448929 43.857235,111.878326 
z"/>
<path fill="#4E1D62" opacity="1.000000" stroke="none" 
	d="
M32.683685,112.128113 
	C32.822975,112.320892 32.672230,112.578682 32.199501,112.868599 
	C32.116779,112.697311 32.288818,112.461441 32.683685,112.128113 
z"/>
<path fill="#4E1D62" opacity="1.000000" stroke="none" 
	d="
M40.297943,121.955536 
	C40.221920,121.744354 40.423695,121.539322 40.926758,121.382820 
	C40.966938,121.574409 40.749496,121.751190 40.297943,121.955536 
z"/>
</svg>